<svg xmlns="http://www.w3.org/2000/svg" width="64" height="64" viewBox="0 0 24 24" fill="#50C878">
  <path d="M12 .5C5.73.5.5 5.73.5 12c0 5.1 3.29 9.4 7.86 10.94.58.1.79-.25.79-.56v-2.18c-3.2.7-3.88-1.54-3.88-1.54-.53-1.33-1.3-1.68-1.3-1.68-1.06-.73.08-.72.08-.72 1.17.08 1.78 1.2 1.78 1.2 1.04 1.77 2.74 1.26 3.41.96.1-.75.41-1.26.74-1.55-2.55-.29-5.23-1.28-5.23-5.72 0-1.26.45-2.28 1.2-3.08-.12-.3-.52-1.52.11-3.17 0 0 .97-.31 3.18 1.18a11.1 11.1 0 0 1 5.8 0c2.2-1.5 3.17-1.18 3.17-1.18.63 1.65.23 2.87.12 3.17.75.8 1.2 1.82 1.2 3.08 0 4.45-2.68 5.43-5.23 5.72.42.37.8 1.1.8 2.22v3.29c0 .31.21.67.8.56A10.5 10.5 0 0 0 23.5 12c0-6.27-5.23-11.5-11.5-11.5z"/>
</svg>