<svg xmlns="http://www.w3.org/2000/svg" width="64" height="64" viewBox="0 0 24 24" fill="#50C878">
  <path d="M20.52 3.48A11.78 11.78 0 0 0 12 0C5.37 0 0 5.37 0 12c0 2.12.55 4.19 1.6 6.02L0 24l6.17-1.61A11.93 11.93 0 0 0 12 24c6.63 0 12-5.37 12-12 0-3.19-1.24-6.19-3.48-8.52zM12 22a9.93 9.93 0 0 1-5.06-1.38l-.36-.21-3.66.96.98-3.57-.24-.37A9.93 9.93 0 0 1 2 12c0-5.51 4.49-10 10-10 2.67 0 5.18 1.04 7.07 2.93A9.93 9.93 0 0 1 22 12c0 5.51-4.49 10-10 10zm5.24-7.44c-.28-.14-1.64-.81-1.9-.9-.26-.1-.45-.14-.64.14-.19.28-.74.9-.9 1.08-.16.18-.34.2-.62.07-.28-.14-1.18-.44-2.24-1.41-.83-.74-1.39-1.65-1.55-1.93-.16-.28-.02-.43.12-.57.12-.12.28-.32.42-.48.14-.16.18-.28.28-.47.1-.2.05-.37-.02-.51-.07-.14-.64-1.54-.88-2.11-.23-.56-.47-.48-.64-.49-.16-.01-.35-.01-.54-.01-.19 0-.5.07-.76.37-.26.3-1 1-1 2.44s1.03 2.83 1.18 3.03c.14.19 2.03 3.1 4.9 4.34.69.3 1.23.48 1.65.61.69.22 1.32.19 1.82.12.56-.08 1.64-.67 1.87-1.32.23-.65.23-1.21.16-1.33-.07-.12-.26-.19-.54-.33z"/>
</svg>